# Blender 4.4.1
# www.blender.org
mtllib MassaDePixa.mtl
o Cylinder
v 0.000000 -0.072735 -1.000000
v 0.000000 0.072735 -1.000000
v 0.195090 -0.072735 -0.980785
v 0.195090 0.072735 -0.980785
v 0.382683 -0.072735 -0.923880
v 0.382683 0.072735 -0.923880
v 0.555570 -0.072735 -0.831470
v 0.555570 0.072735 -0.831470
v 0.707107 -0.072735 -0.707107
v 0.707107 0.072735 -0.707107
v 0.831470 -0.072735 -0.555570
v 0.831470 0.072735 -0.555570
v 0.923880 -0.072735 -0.382683
v 0.923880 0.072735 -0.382683
v 0.980785 -0.072735 -0.195090
v 0.980785 0.072735 -0.195090
v 1.000000 -0.072735 0.000000
v 1.000000 0.072735 0.000000
v 0.980785 -0.072735 0.195090
v 0.980785 0.072735 0.195090
v 0.923880 -0.072735 0.382683
v 0.923880 0.072735 0.382683
v 0.831470 -0.072735 0.555570
v 0.831470 0.072735 0.555570
v 0.707107 -0.072735 0.707107
v 0.707107 0.072735 0.707107
v 0.555570 -0.072735 0.831470
v 0.555570 0.072735 0.831470
v 0.382683 -0.072735 0.923880
v 0.382683 0.072735 0.923880
v 0.195090 -0.072735 0.980785
v 0.195090 0.072735 0.980785
v 0.000000 -0.072735 1.000000
v 0.000000 0.072735 1.000000
v -0.195090 -0.072735 0.980785
v -0.195090 0.072735 0.980785
v -0.382683 -0.072735 0.923880
v -0.382683 0.072735 0.923880
v -0.555570 -0.072735 0.831470
v -0.555570 0.072735 0.831470
v -0.707107 -0.072735 0.707107
v -0.707107 0.072735 0.707107
v -0.831470 -0.072735 0.555570
v -0.831470 0.072735 0.555570
v -0.923880 -0.072735 0.382683
v -0.923880 0.072735 0.382683
v -0.980785 -0.072735 0.195090
v -0.980785 0.072735 0.195090
v -1.000000 -0.072735 0.000000
v -1.000000 0.072735 0.000000
v -0.980785 -0.072735 -0.195090
v -0.980785 0.072735 -0.195090
v -0.923880 -0.072735 -0.382683
v -0.923880 0.072735 -0.382683
v -0.831470 -0.072735 -0.555570
v -0.831470 0.072735 -0.555570
v -0.707107 -0.072735 -0.707107
v -0.707107 0.072735 -0.707107
v -0.555570 -0.072735 -0.831470
v -0.555570 0.072735 -0.831470
v -0.382683 -0.072735 -0.923880
v -0.382683 0.072735 -0.923880
v -0.195090 -0.072735 -0.980785
v -0.195090 0.072735 -0.980785
v -0.000000 0.045668 -1.014725
v -0.000000 -0.045668 -1.014725
v -0.000000 0.016715 -1.023819
v -0.000000 -0.016715 -1.023819
v 0.197963 -0.045668 -0.995228
v 0.197963 0.045668 -0.995228
v 0.199737 -0.016715 -1.004147
v 0.199737 0.016715 -1.004147
v 0.388319 -0.045668 -0.937484
v 0.388319 0.045668 -0.937484
v 0.391799 -0.016715 -0.945885
v 0.391799 0.016715 -0.945885
v 0.563751 -0.045668 -0.843713
v 0.563751 0.045668 -0.843713
v 0.568803 -0.016715 -0.851274
v 0.568803 0.016715 -0.851274
v 0.717519 -0.045668 -0.717519
v 0.717519 0.045668 -0.717519
v 0.723949 -0.016715 -0.723949
v 0.723949 0.016715 -0.723949
v 0.843713 -0.045668 -0.563751
v 0.843713 0.045668 -0.563751
v 0.851274 -0.016715 -0.568803
v 0.851274 0.016715 -0.568803
v 0.937484 -0.045668 -0.388319
v 0.937484 0.045668 -0.388319
v 0.945885 -0.016715 -0.391799
v 0.945885 0.016715 -0.391799
v 0.995228 -0.045668 -0.197963
v 0.995228 0.045668 -0.197963
v 1.004147 -0.016715 -0.199737
v 1.004147 0.016715 -0.199737
v 1.014725 -0.045668 0.000000
v 1.014725 0.045668 0.000000
v 1.023819 -0.016715 0.000000
v 1.023819 0.016715 0.000000
v 0.995228 -0.045668 0.197963
v 0.995228 0.045668 0.197963
v 1.004147 -0.016715 0.199737
v 1.004147 0.016715 0.199737
v 0.937484 -0.045668 0.388319
v 0.937484 0.045668 0.388319
v 0.945885 -0.016715 0.391799
v 0.945885 0.016715 0.391799
v 0.843713 -0.045668 0.563751
v 0.843713 0.045668 0.563751
v 0.851274 -0.016715 0.568803
v 0.851274 0.016715 0.568803
v 0.717519 -0.045668 0.717519
v 0.717519 0.045668 0.717519
v 0.723949 -0.016715 0.723949
v 0.723949 0.016715 0.723949
v 0.563751 -0.045668 0.843713
v 0.563751 0.045668 0.843713
v 0.568803 -0.016715 0.851274
v 0.568803 0.016715 0.851274
v 0.388319 -0.045668 0.937484
v 0.388319 0.045668 0.937484
v 0.391799 -0.016715 0.945885
v 0.391799 0.016715 0.945885
v 0.197963 -0.045668 0.995228
v 0.197963 0.045668 0.995228
v 0.199737 -0.016715 1.004147
v 0.199737 0.016715 1.004147
v -0.000000 -0.045668 1.014725
v -0.000000 0.045668 1.014725
v -0.000000 -0.016715 1.023819
v -0.000000 0.016715 1.023819
v -0.197963 -0.045668 0.995228
v -0.197963 0.045668 0.995228
v -0.199737 -0.016715 1.004147
v -0.199737 0.016715 1.004147
v -0.388319 -0.045668 0.937484
v -0.388319 0.045668 0.937484
v -0.391799 -0.016715 0.945885
v -0.391799 0.016715 0.945885
v -0.563751 -0.045668 0.843713
v -0.563751 0.045668 0.843713
v -0.568803 -0.016715 0.851274
v -0.568803 0.016715 0.851274
v -0.717519 -0.045668 0.717519
v -0.717519 0.045668 0.717519
v -0.723949 -0.016715 0.723949
v -0.723949 0.016715 0.723949
v -0.843713 -0.045668 0.563751
v -0.843713 0.045668 0.563751
v -0.851274 -0.016715 0.568803
v -0.851274 0.016715 0.568803
v -0.937484 -0.045668 0.388319
v -0.937484 0.045668 0.388319
v -0.945885 -0.016715 0.391799
v -0.945885 0.016715 0.391799
v -0.995228 -0.045668 0.197963
v -0.995228 0.045668 0.197963
v -1.004147 -0.016715 0.199737
v -1.004147 0.016715 0.199737
v -1.014725 -0.045668 0.000000
v -1.014725 0.045668 0.000000
v -1.023819 -0.016715 0.000000
v -1.023819 0.016715 0.000000
v -0.995228 -0.045668 -0.197963
v -0.995228 0.045668 -0.197963
v -1.004147 -0.016715 -0.199737
v -1.004147 0.016715 -0.199737
v -0.937484 -0.045668 -0.388319
v -0.937484 0.045668 -0.388319
v -0.945885 -0.016715 -0.391799
v -0.945885 0.016715 -0.391799
v -0.843713 -0.045668 -0.563751
v -0.843713 0.045668 -0.563751
v -0.851274 -0.016715 -0.568803
v -0.851274 0.016715 -0.568803
v -0.717519 -0.045668 -0.717519
v -0.717519 0.045668 -0.717519
v -0.723949 -0.016715 -0.723949
v -0.723949 0.016715 -0.723949
v -0.563751 -0.045668 -0.843713
v -0.563751 0.045668 -0.843713
v -0.568803 -0.016715 -0.851274
v -0.568803 0.016715 -0.851274
v -0.388319 -0.045668 -0.937484
v -0.388319 0.045668 -0.937484
v -0.391799 -0.016715 -0.945885
v -0.391799 0.016715 -0.945885
v -0.197963 -0.045668 -0.995228
v -0.197963 0.045668 -0.995228
v -0.199737 -0.016715 -1.004147
v -0.199737 0.016715 -1.004147
v 0.169565 0.016197 -0.852462
v 0.000000 0.016197 -0.869162
v 0.332614 0.016197 -0.803001
v 0.482881 0.016197 -0.722682
v 0.614591 0.016197 -0.614591
v 0.722682 0.016197 -0.482881
v 0.803001 0.016197 -0.332614
v 0.852462 0.016197 -0.169565
v 0.869162 0.016197 -0.000000
v 0.852462 0.016197 0.169565
v 0.803001 0.016197 0.332614
v 0.722682 0.016197 0.482881
v 0.614591 0.016197 0.614591
v 0.482881 0.016197 0.722682
v 0.332614 0.016197 0.803001
v 0.169565 0.016197 0.852462
v 0.000000 0.016197 0.869162
v -0.169565 0.016197 0.852462
v -0.332614 0.016197 0.803001
v -0.482881 0.016197 0.722682
v -0.614591 0.016197 0.614591
v -0.722682 0.016197 0.482881
v -0.803001 0.016197 0.332614
v -0.852462 0.016197 0.169565
v -0.869162 0.016197 -0.000000
v -0.852462 0.016197 -0.169565
v -0.803001 0.016197 -0.332614
v -0.722682 0.016197 -0.482881
v -0.614591 0.016197 -0.614591
v -0.482881 0.016197 -0.722682
v -0.332614 0.016197 -0.803001
v -0.169565 0.016197 -0.852462
v 0.169565 0.068388 -0.852462
v 0.181282 0.072735 -0.911365
v 0.169964 0.069513 -0.854469
v 0.171135 0.070561 -0.860353
v 0.172997 0.071462 -0.869714
v 0.175423 0.072152 -0.881913
v 0.178249 0.072587 -0.896120
v 0.000000 0.072735 -0.929220
v 0.000000 0.068388 -0.869162
v 0.000000 0.072587 -0.913676
v 0.000000 0.072152 -0.899191
v 0.000000 0.071462 -0.886753
v 0.000000 0.070561 -0.877208
v 0.000000 0.069513 -0.871209
v 0.332614 0.068388 -0.803001
v 0.355597 0.072735 -0.858487
v 0.333397 0.069513 -0.804892
v 0.335693 0.070561 -0.810435
v 0.339346 0.071462 -0.819253
v 0.344106 0.072152 -0.830744
v 0.349649 0.072587 -0.844126
v 0.482881 0.068388 -0.722682
v 0.516247 0.072735 -0.772618
v 0.484018 0.069513 -0.724384
v 0.487351 0.070561 -0.729372
v 0.492653 0.071462 -0.737308
v 0.499564 0.072152 -0.747650
v 0.507611 0.072587 -0.759694
v 0.614591 0.068388 -0.614591
v 0.657058 0.072735 -0.657058
v 0.616038 0.069513 -0.616038
v 0.620280 0.070561 -0.620280
v 0.627029 0.071462 -0.627029
v 0.635824 0.072152 -0.635824
v 0.646066 0.072587 -0.646066
v 0.722682 0.068388 -0.482881
v 0.772618 0.072735 -0.516247
v 0.724384 0.069513 -0.484018
v 0.729372 0.070561 -0.487351
v 0.737308 0.071462 -0.492653
v 0.747650 0.072152 -0.499564
v 0.759694 0.072587 -0.507611
v 0.803001 0.068388 -0.332614
v 0.858487 0.072735 -0.355597
v 0.804892 0.069513 -0.333397
v 0.810435 0.070561 -0.335693
v 0.819253 0.071462 -0.339346
v 0.830744 0.072152 -0.344106
v 0.844126 0.072587 -0.349649
v 0.852462 0.068388 -0.169565
v 0.911365 0.072735 -0.181282
v 0.854469 0.069513 -0.169964
v 0.860353 0.070561 -0.171135
v 0.869714 0.071462 -0.172997
v 0.881913 0.072152 -0.175423
v 0.896120 0.072587 -0.178249
v 0.869162 0.068388 -0.000000
v 0.929220 0.072735 -0.000000
v 0.871209 0.069513 -0.000000
v 0.877208 0.070561 -0.000000
v 0.886753 0.071462 -0.000000
v 0.899191 0.072152 -0.000000
v 0.913676 0.072587 -0.000000
v 0.852462 0.068388 0.169565
v 0.911365 0.072735 0.181282
v 0.854469 0.069513 0.169964
v 0.860353 0.070561 0.171135
v 0.869714 0.071462 0.172997
v 0.881913 0.072152 0.175423
v 0.896120 0.072587 0.178249
v 0.803001 0.068388 0.332614
v 0.858487 0.072735 0.355597
v 0.804892 0.069513 0.333397
v 0.810435 0.070561 0.335693
v 0.819253 0.071462 0.339346
v 0.830744 0.072152 0.344106
v 0.844126 0.072587 0.349649
v 0.722682 0.068388 0.482881
v 0.772618 0.072735 0.516247
v 0.724384 0.069513 0.484018
v 0.729372 0.070561 0.487351
v 0.737308 0.071462 0.492653
v 0.747650 0.072152 0.499564
v 0.759694 0.072587 0.507611
v 0.614591 0.068388 0.614591
v 0.657058 0.072735 0.657058
v 0.616038 0.069513 0.616038
v 0.620280 0.070561 0.620280
v 0.627029 0.071462 0.627029
v 0.635824 0.072152 0.635824
v 0.646066 0.072587 0.646066
v 0.482881 0.068388 0.722682
v 0.516247 0.072735 0.772618
v 0.484018 0.069513 0.724384
v 0.487351 0.070561 0.729372
v 0.492653 0.071462 0.737308
v 0.499564 0.072152 0.747650
v 0.507611 0.072587 0.759694
v 0.332614 0.068388 0.803001
v 0.355597 0.072735 0.858487
v 0.333397 0.069513 0.804892
v 0.335693 0.070561 0.810435
v 0.339346 0.071462 0.819253
v 0.344106 0.072152 0.830744
v 0.349649 0.072587 0.844126
v 0.169565 0.068388 0.852462
v 0.181282 0.072735 0.911365
v 0.169964 0.069513 0.854469
v 0.171135 0.070561 0.860353
v 0.172997 0.071462 0.869714
v 0.175423 0.072152 0.881913
v 0.178249 0.072587 0.896120
v 0.000000 0.068388 0.869162
v 0.000000 0.072735 0.929220
v 0.000000 0.069513 0.871209
v 0.000000 0.070561 0.877208
v 0.000000 0.071462 0.886753
v 0.000000 0.072152 0.899191
v 0.000000 0.072587 0.913676
v -0.169565 0.068388 0.852462
v -0.181282 0.072735 0.911365
v -0.169964 0.069513 0.854469
v -0.171135 0.070561 0.860353
v -0.172997 0.071462 0.869714
v -0.175423 0.072152 0.881913
v -0.178249 0.072587 0.896120
v -0.332614 0.068388 0.803001
v -0.355597 0.072735 0.858487
v -0.333397 0.069513 0.804892
v -0.335693 0.070561 0.810435
v -0.339346 0.071462 0.819253
v -0.344106 0.072152 0.830744
v -0.349649 0.072587 0.844126
v -0.482881 0.068388 0.722682
v -0.516247 0.072735 0.772618
v -0.484018 0.069513 0.724384
v -0.487351 0.070561 0.729372
v -0.492653 0.071462 0.737308
v -0.499564 0.072152 0.747650
v -0.507611 0.072587 0.759694
v -0.614591 0.068388 0.614591
v -0.657058 0.072735 0.657058
v -0.616038 0.069513 0.616038
v -0.620280 0.070561 0.620280
v -0.627029 0.071462 0.627029
v -0.635824 0.072152 0.635824
v -0.646066 0.072587 0.646066
v -0.722682 0.068388 0.482881
v -0.772618 0.072735 0.516247
v -0.724384 0.069513 0.484018
v -0.729372 0.070561 0.487351
v -0.737308 0.071462 0.492653
v -0.747650 0.072152 0.499564
v -0.759694 0.072587 0.507611
v -0.803001 0.068388 0.332614
v -0.858487 0.072735 0.355597
v -0.804892 0.069513 0.333397
v -0.810435 0.070561 0.335693
v -0.819253 0.071462 0.339346
v -0.830744 0.072152 0.344106
v -0.844126 0.072587 0.349649
v -0.852462 0.068388 0.169565
v -0.911365 0.072735 0.181282
v -0.854469 0.069513 0.169964
v -0.860353 0.070561 0.171135
v -0.869714 0.071462 0.172997
v -0.881913 0.072152 0.175423
v -0.896120 0.072587 0.178249
v -0.869162 0.068388 -0.000000
v -0.929220 0.072735 -0.000000
v -0.871209 0.069513 -0.000000
v -0.877208 0.070561 -0.000000
v -0.886753 0.071462 -0.000000
v -0.899191 0.072152 -0.000000
v -0.913676 0.072587 -0.000000
v -0.852462 0.068388 -0.169565
v -0.911365 0.072735 -0.181282
v -0.854469 0.069513 -0.169964
v -0.860353 0.070561 -0.171135
v -0.869714 0.071462 -0.172997
v -0.881913 0.072152 -0.175423
v -0.896120 0.072587 -0.178249
v -0.803001 0.068388 -0.332614
v -0.858487 0.072735 -0.355597
v -0.804892 0.069513 -0.333397
v -0.810435 0.070561 -0.335693
v -0.819253 0.071462 -0.339346
v -0.830744 0.072152 -0.344106
v -0.844126 0.072587 -0.349649
v -0.722682 0.068388 -0.482881
v -0.772618 0.072735 -0.516247
v -0.724384 0.069513 -0.484018
v -0.729372 0.070561 -0.487351
v -0.737308 0.071462 -0.492653
v -0.747650 0.072152 -0.499564
v -0.759694 0.072587 -0.507611
v -0.614591 0.068388 -0.614591
v -0.657058 0.072735 -0.657058
v -0.616038 0.069513 -0.616038
v -0.620280 0.070561 -0.620280
v -0.627029 0.071462 -0.627029
v -0.635824 0.072152 -0.635824
v -0.646066 0.072587 -0.646066
v -0.482881 0.068388 -0.722682
v -0.516247 0.072735 -0.772618
v -0.484018 0.069513 -0.724384
v -0.487351 0.070561 -0.729372
v -0.492653 0.071462 -0.737308
v -0.499564 0.072152 -0.747650
v -0.507611 0.072587 -0.759694
v -0.332614 0.068388 -0.803001
v -0.355597 0.072735 -0.858487
v -0.333397 0.069513 -0.804892
v -0.335693 0.070561 -0.810435
v -0.339346 0.071462 -0.819253
v -0.344106 0.072152 -0.830744
v -0.349649 0.072587 -0.844126
v -0.169565 0.068388 -0.852462
v -0.181282 0.072735 -0.911365
v -0.169964 0.069513 -0.854469
v -0.171135 0.070561 -0.860353
v -0.172997 0.071462 -0.869714
v -0.175423 0.072152 -0.881913
v -0.178249 0.072587 -0.896120
vn -0.0862 -0.4761 -0.8752
vn 0.4145 -0.4761 -0.7756
vn 0.5579 -0.4761 -0.6798
vn 0.6798 -0.4761 -0.5579
vn 0.7756 -0.4761 -0.4145
vn 0.8415 -0.4761 -0.2553
vn 0.8752 -0.4761 -0.0862
vn 0.8752 -0.4761 0.0862
vn 0.8415 -0.4761 0.2553
vn 0.7756 -0.4761 0.4145
vn 0.6798 -0.4761 0.5579
vn 0.5579 -0.4761 0.6798
vn 0.4145 -0.4761 0.7756
vn 0.2553 -0.4761 0.8415
vn 0.0862 -0.4761 0.8752
vn -0.0862 -0.4761 0.8752
vn -0.2553 -0.4761 0.8415
vn -0.4145 -0.4761 0.7756
vn -0.5579 -0.4761 0.6798
vn -0.6798 -0.4761 0.5579
vn -0.7756 -0.4761 0.4145
vn -0.8415 -0.4761 0.2553
vn -0.8752 -0.4761 0.0862
vn -0.8752 -0.4761 -0.0862
vn -0.8415 -0.4761 -0.2553
vn -0.7756 -0.4761 -0.4145
vn -0.6798 -0.4761 -0.5579
vn -0.5579 -0.4761 -0.6798
vn -0.4145 -0.4761 -0.7756
vn -0.2553 -0.4761 -0.8415
vn 0.9952 -0.0000 0.0980
vn 0.0862 -0.4761 -0.8752
vn -0.0000 -1.0000 -0.0000
vn 0.2553 -0.4761 -0.8415
vn -0.2553 0.4761 -0.8415
vn -0.4145 0.4761 -0.7756
vn -0.5579 0.4761 -0.6798
vn -0.6798 0.4761 -0.5579
vn -0.7756 0.4761 -0.4145
vn -0.8415 0.4761 -0.2553
vn -0.8752 0.4761 -0.0862
vn -0.8752 0.4761 0.0862
vn -0.8415 0.4761 0.2553
vn -0.7756 0.4761 0.4145
vn -0.6798 0.4761 0.5579
vn -0.5579 0.4761 0.6798
vn -0.4145 0.4761 0.7756
vn -0.2553 0.4761 0.8415
vn -0.0862 0.4761 0.8752
vn 0.0862 0.4761 0.8752
vn 0.2553 0.4761 0.8415
vn 0.4145 0.4761 0.7756
vn 0.5579 0.4761 0.6798
vn 0.6798 0.4761 0.5579
vn 0.7756 0.4761 0.4145
vn 0.8415 0.4761 0.2553
vn 0.8752 0.4761 0.0862
vn 0.8752 0.4761 -0.0862
vn 0.8415 0.4761 -0.2553
vn 0.7756 0.4761 -0.4145
vn 0.6798 0.4761 -0.5579
vn 0.5579 0.4761 -0.6798
vn 0.4145 0.4761 -0.7756
vn 0.2553 0.4761 -0.8415
vn 0.0862 0.4761 -0.8752
vn -0.0936 0.2983 -0.9499
vn -0.0980 -0.0000 -0.9952
vn -0.0936 -0.2983 -0.9499
vn -0.2771 0.2983 -0.9134
vn -0.2903 -0.0000 -0.9569
vn -0.2771 -0.2983 -0.9134
vn -0.4499 0.2983 -0.8418
vn -0.4714 -0.0000 -0.8819
vn -0.4499 -0.2983 -0.8418
vn -0.6055 0.2983 -0.7378
vn -0.6344 -0.0000 -0.7730
vn -0.6055 -0.2983 -0.7378
vn -0.7378 0.2983 -0.6055
vn -0.7730 -0.0000 -0.6344
vn -0.7378 -0.2983 -0.6055
vn -0.8418 0.2983 -0.4499
vn -0.8819 -0.0000 -0.4714
vn -0.8418 -0.2983 -0.4499
vn -0.9134 0.2983 -0.2771
vn -0.9569 -0.0000 -0.2903
vn -0.9134 -0.2983 -0.2771
vn -0.9499 0.2983 -0.0936
vn -0.9952 -0.0000 -0.0980
vn -0.9499 -0.2983 -0.0936
vn -0.9499 0.2983 0.0936
vn -0.9952 -0.0000 0.0980
vn -0.9499 -0.2983 0.0936
vn -0.9134 0.2983 0.2771
vn -0.9569 -0.0000 0.2903
vn -0.9134 -0.2983 0.2771
vn -0.8418 0.2983 0.4499
vn -0.8819 -0.0000 0.4714
vn -0.8418 -0.2983 0.4499
vn -0.7378 0.2983 0.6055
vn -0.7730 -0.0000 0.6344
vn -0.7378 -0.2983 0.6055
vn -0.6055 0.2983 0.7378
vn -0.6344 -0.0000 0.7730
vn -0.6055 -0.2983 0.7378
vn -0.4499 0.2983 0.8418
vn -0.4714 -0.0000 0.8819
vn -0.4499 -0.2983 0.8418
vn -0.2771 0.2983 0.9134
vn -0.2903 -0.0000 0.9569
vn -0.2771 -0.2983 0.9134
vn -0.0936 0.2983 0.9499
vn -0.0980 -0.0000 0.9952
vn -0.0936 -0.2983 0.9499
vn 0.0936 0.2983 0.9499
vn 0.0980 -0.0000 0.9952
vn 0.0936 -0.2983 0.9499
vn 0.2771 0.2983 0.9134
vn 0.2903 -0.0000 0.9569
vn 0.2771 -0.2983 0.9134
vn 0.4499 0.2983 0.8418
vn 0.4714 -0.0000 0.8819
vn 0.4499 -0.2983 0.8418
vn 0.6055 0.2983 0.7378
vn 0.6344 -0.0000 0.7730
vn 0.6055 -0.2983 0.7378
vn 0.7378 0.2983 0.6055
vn 0.7730 -0.0000 0.6344
vn 0.7378 -0.2983 0.6055
vn 0.8418 0.2983 0.4499
vn 0.8819 -0.0000 0.4714
vn 0.8418 -0.2983 0.4499
vn 0.9134 0.2983 0.2771
vn 0.9569 -0.0000 0.2903
vn 0.9134 -0.2983 0.2771
vn 0.9499 0.2983 0.0936
vn 0.9499 -0.2983 0.0936
vn 0.9499 0.2983 -0.0936
vn 0.9952 -0.0000 -0.0980
vn 0.9499 -0.2983 -0.0936
vn 0.9134 0.2983 -0.2771
vn 0.9569 -0.0000 -0.2903
vn 0.9134 -0.2983 -0.2771
vn 0.8418 0.2983 -0.4499
vn 0.8819 -0.0000 -0.4714
vn 0.8418 -0.2983 -0.4499
vn 0.7378 0.2983 -0.6055
vn 0.7730 -0.0000 -0.6344
vn 0.7378 -0.2983 -0.6055
vn 0.6055 0.2983 -0.7378
vn 0.6344 -0.0000 -0.7730
vn 0.6055 -0.2983 -0.7378
vn 0.4499 0.2983 -0.8418
vn 0.4714 -0.0000 -0.8819
vn 0.4499 -0.2983 -0.8418
vn 0.2771 0.2983 -0.9134
vn 0.2903 -0.0000 -0.9569
vn 0.2771 -0.2983 -0.9134
vn 0.0936 0.2983 -0.9499
vn 0.0980 -0.0000 -0.9952
vn 0.0936 -0.2983 -0.9499
vn -0.0862 0.4761 -0.8752
vn -0.0000 1.0000 -0.0000
vn -0.0009 1.0000 0.0095
vn -0.0030 0.9995 0.0300
vn -0.0055 0.9984 0.0555
vn -0.0092 0.9955 0.0939
vn -0.0170 0.9849 0.1721
vn -0.0474 0.8753 0.4812
vn -0.0028 1.0000 0.0092
vn -0.0087 0.9995 0.0288
vn -0.0162 0.9984 0.0533
vn -0.0274 0.9955 0.0903
vn -0.0502 0.9849 0.1655
vn -0.1404 0.8753 0.4628
vn -0.0045 1.0000 0.0084
vn -0.0142 0.9995 0.0266
vn -0.0263 0.9984 0.0491
vn -0.0445 0.9955 0.0832
vn -0.0815 0.9849 0.1525
vn -0.2280 0.8753 0.4265
vn -0.0061 1.0000 0.0074
vn -0.0191 0.9995 0.0233
vn -0.0354 0.9984 0.0431
vn -0.0599 0.9955 0.0729
vn -0.1097 0.9849 0.1337
vn -0.3068 0.8753 0.3738
vn -0.0074 1.0000 0.0061
vn -0.0233 0.9995 0.0191
vn -0.0431 0.9984 0.0354
vn -0.0729 0.9955 0.0599
vn -0.1337 0.9849 0.1097
vn -0.3738 0.8753 0.3068
vn -0.0084 1.0000 0.0045
vn -0.0266 0.9995 0.0142
vn -0.0491 0.9984 0.0263
vn -0.0832 0.9955 0.0445
vn -0.1525 0.9849 0.0815
vn -0.4265 0.8753 0.2280
vn -0.0092 1.0000 0.0028
vn -0.0288 0.9995 0.0087
vn -0.0533 0.9984 0.0162
vn -0.0903 0.9955 0.0274
vn -0.1655 0.9849 0.0502
vn -0.4628 0.8753 0.1404
vn -0.0095 1.0000 0.0009
vn -0.0300 0.9995 0.0030
vn -0.0555 0.9984 0.0055
vn -0.0939 0.9955 0.0092
vn -0.1721 0.9849 0.0170
vn -0.4812 0.8753 0.0474
vn -0.0095 1.0000 -0.0009
vn -0.0300 0.9995 -0.0030
vn -0.0555 0.9984 -0.0055
vn -0.0939 0.9955 -0.0092
vn -0.1721 0.9849 -0.0170
vn -0.4812 0.8753 -0.0474
vn -0.0092 1.0000 -0.0028
vn -0.0288 0.9995 -0.0087
vn -0.0533 0.9984 -0.0162
vn -0.0903 0.9955 -0.0274
vn -0.1655 0.9849 -0.0502
vn -0.4628 0.8753 -0.1404
vn -0.0084 1.0000 -0.0045
vn -0.0266 0.9995 -0.0142
vn -0.0491 0.9984 -0.0263
vn -0.0832 0.9955 -0.0445
vn -0.1525 0.9849 -0.0815
vn -0.4265 0.8753 -0.2280
vn -0.0074 1.0000 -0.0061
vn -0.0233 0.9995 -0.0191
vn -0.0431 0.9984 -0.0354
vn -0.0729 0.9955 -0.0599
vn -0.1337 0.9849 -0.1097
vn -0.3738 0.8753 -0.3068
vn -0.0061 1.0000 -0.0074
vn -0.0191 0.9995 -0.0233
vn -0.0354 0.9984 -0.0431
vn -0.0599 0.9955 -0.0729
vn -0.1097 0.9849 -0.1337
vn -0.3068 0.8753 -0.3738
vn -0.0045 1.0000 -0.0084
vn -0.0142 0.9995 -0.0266
vn -0.0263 0.9984 -0.0491
vn -0.0445 0.9955 -0.0832
vn -0.0815 0.9849 -0.1525
vn -0.2280 0.8753 -0.4265
vn -0.0028 1.0000 -0.0092
vn -0.0087 0.9995 -0.0288
vn -0.0162 0.9984 -0.0533
vn -0.0274 0.9955 -0.0903
vn -0.0502 0.9849 -0.1655
vn -0.1404 0.8753 -0.4628
vn -0.0009 1.0000 -0.0095
vn -0.0030 0.9995 -0.0300
vn -0.0055 0.9984 -0.0555
vn -0.0092 0.9955 -0.0939
vn -0.0170 0.9849 -0.1721
vn -0.0474 0.8753 -0.4813
vn 0.0009 1.0000 -0.0095
vn 0.0030 0.9995 -0.0300
vn 0.0055 0.9984 -0.0555
vn 0.0092 0.9955 -0.0939
vn 0.0170 0.9849 -0.1721
vn 0.0474 0.8753 -0.4813
vn 0.0028 1.0000 -0.0092
vn 0.0087 0.9995 -0.0288
vn 0.0162 0.9984 -0.0533
vn 0.0274 0.9955 -0.0903
vn 0.0502 0.9849 -0.1655
vn 0.1404 0.8753 -0.4628
vn 0.0045 1.0000 -0.0084
vn 0.0142 0.9995 -0.0266
vn 0.0263 0.9984 -0.0491
vn 0.0445 0.9955 -0.0832
vn 0.0815 0.9849 -0.1525
vn 0.2280 0.8753 -0.4265
vn 0.0061 1.0000 -0.0074
vn 0.0191 0.9995 -0.0233
vn 0.0354 0.9984 -0.0431
vn 0.0599 0.9955 -0.0729
vn 0.1097 0.9849 -0.1337
vn 0.3068 0.8753 -0.3738
vn 0.0074 1.0000 -0.0061
vn 0.0233 0.9995 -0.0191
vn 0.0431 0.9984 -0.0354
vn 0.0729 0.9955 -0.0599
vn 0.1337 0.9849 -0.1097
vn 0.3738 0.8753 -0.3068
vn 0.0084 1.0000 -0.0045
vn 0.0266 0.9995 -0.0142
vn 0.0491 0.9984 -0.0263
vn 0.0832 0.9955 -0.0445
vn 0.1525 0.9849 -0.0815
vn 0.4265 0.8753 -0.2280
vn 0.0092 1.0000 -0.0028
vn 0.0288 0.9995 -0.0087
vn 0.0533 0.9984 -0.0162
vn 0.0903 0.9955 -0.0274
vn 0.1655 0.9849 -0.0502
vn 0.4628 0.8753 -0.1404
vn 0.0095 1.0000 -0.0009
vn 0.0300 0.9995 -0.0030
vn 0.0555 0.9984 -0.0055
vn 0.0939 0.9955 -0.0092
vn 0.1721 0.9849 -0.0170
vn 0.4812 0.8753 -0.0474
vn 0.0095 1.0000 0.0009
vn 0.0300 0.9995 0.0030
vn 0.0555 0.9984 0.0055
vn 0.0939 0.9955 0.0092
vn 0.1721 0.9849 0.0170
vn 0.4812 0.8753 0.0474
vn 0.0092 1.0000 0.0028
vn 0.0288 0.9995 0.0087
vn 0.0533 0.9984 0.0162
vn 0.0903 0.9955 0.0274
vn 0.1655 0.9849 0.0502
vn 0.4628 0.8753 0.1404
vn 0.0084 1.0000 0.0045
vn 0.0266 0.9995 0.0142
vn 0.0491 0.9984 0.0263
vn 0.0832 0.9955 0.0445
vn 0.1525 0.9849 0.0815
vn 0.4265 0.8753 0.2280
vn 0.0074 1.0000 0.0061
vn 0.0233 0.9995 0.0191
vn 0.0431 0.9984 0.0354
vn 0.0729 0.9955 0.0599
vn 0.1337 0.9849 0.1097
vn 0.3738 0.8753 0.3068
vn 0.0061 1.0000 0.0074
vn 0.0191 0.9995 0.0233
vn 0.0354 0.9984 0.0431
vn 0.0599 0.9955 0.0729
vn 0.1097 0.9849 0.1337
vn 0.3068 0.8753 0.3738
vn 0.0045 1.0000 0.0084
vn 0.0142 0.9995 0.0266
vn 0.0263 0.9984 0.0491
vn 0.0445 0.9955 0.0832
vn 0.0815 0.9849 0.1525
vn 0.2280 0.8753 0.4265
vn 0.0028 1.0000 0.0092
vn 0.0087 0.9995 0.0288
vn 0.0162 0.9984 0.0533
vn 0.0274 0.9955 0.0903
vn 0.0502 0.9849 0.1655
vn 0.1404 0.8753 0.4628
vn 0.0009 1.0000 0.0095
vn 0.0030 0.9995 0.0300
vn 0.0055 0.9984 0.0555
vn 0.0092 0.9955 0.0939
vn 0.0170 0.9849 0.1721
vn 0.0474 0.8753 0.4812
vt 0.031250 0.500000
vt 0.031250 0.593034
vt 0.000000 0.593034
vt 0.000000 0.500000
vt 0.937500 0.500000
vt 0.937500 0.593034
vt 0.906250 0.593034
vt 0.906250 0.500000
vt 0.875000 0.593034
vt 0.875000 0.500000
vt 0.843750 0.593034
vt 0.843750 0.500000
vt 0.812500 0.593034
vt 0.812500 0.500000
vt 0.812500 0.593034
vt 0.781250 0.593034
vt 0.781250 0.500000
vt 0.750000 0.593034
vt 0.750000 0.500000
vt 0.718750 0.593034
vt 0.718750 0.500000
vt 0.687500 0.593034
vt 0.687500 0.500000
vt 0.656250 0.593034
vt 0.656250 0.500000
vt 0.625000 0.593034
vt 0.625000 0.500000
vt 0.593750 0.593034
vt 0.593750 0.500000
vt 0.562500 0.593034
vt 0.562500 0.500000
vt 0.531250 0.593034
vt 0.531250 0.500000
vt 0.500000 0.593034
vt 0.500000 0.500000
vt 0.468750 0.593034
vt 0.468750 0.500000
vt 0.437500 0.593034
vt 0.437500 0.500000
vt 0.406250 0.593034
vt 0.406250 0.500000
vt 0.375000 0.593034
vt 0.375000 0.500000
vt 0.343750 0.593034
vt 0.343750 0.500000
vt 0.312500 0.593034
vt 0.312500 0.500000
vt 0.281250 0.593034
vt 0.281250 0.500000
vt 0.250000 0.593034
vt 0.250000 0.500000
vt 0.218750 0.593034
vt 0.218750 0.500000
vt 0.187500 0.593034
vt 0.187500 0.500000
vt 0.156250 0.593034
vt 0.156250 0.500000
vt 0.125000 0.593034
vt 0.125000 0.500000
vt 0.093750 0.593034
vt 0.093750 0.500000
vt 0.062500 0.593034
vt 0.062500 0.500000
vt 0.218750 1.000000
vt 0.250000 1.000000
vt 1.000000 0.500000
vt 1.000000 0.593034
vt 0.968750 0.593034
vt 0.968750 0.500000
vt 0.750000 0.490000
vt 0.796822 0.485388
vt 0.841844 0.471731
vt 0.883337 0.449553
vt 0.919706 0.419706
vt 0.949553 0.383337
vt 0.971731 0.341844
vt 0.985388 0.296822
vt 0.990000 0.250000
vt 0.985388 0.203178
vt 0.971731 0.158156
vt 0.949553 0.116663
vt 0.919706 0.080294
vt 0.883337 0.050447
vt 0.841844 0.028269
vt 0.796822 0.014612
vt 0.750000 0.010000
vt 0.703178 0.014612
vt 0.658156 0.028269
vt 0.616663 0.050447
vt 0.580294 0.080294
vt 0.550447 0.116663
vt 0.528269 0.158156
vt 0.514612 0.203178
vt 0.510000 0.250000
vt 0.514612 0.296822
vt 0.528269 0.341844
vt 0.550447 0.383337
vt 0.580294 0.419706
vt 0.616663 0.449553
vt 0.658156 0.471731
vt 0.703178 0.485388
vt 0.062500 0.906966
vt 0.062500 1.000000
vt 0.031250 1.000000
vt 0.031250 0.906966
vt 0.093750 0.906966
vt 0.093750 1.000000
vt 0.125000 0.906966
vt 0.125000 1.000000
vt 0.156250 0.906966
vt 0.156250 1.000000
vt 0.187500 0.906966
vt 0.187500 1.000000
vt 0.218750 0.906966
vt 0.187500 0.906966
vt 0.250000 0.906966
vt 0.218750 0.906966
vt 0.281250 0.906966
vt 0.281250 1.000000
vt 0.250000 0.906966
vt 0.312500 0.906966
vt 0.312500 1.000000
vt 0.281250 0.906966
vt 0.343750 0.906966
vt 0.343750 1.000000
vt 0.375000 0.906966
vt 0.375000 1.000000
vt 0.406250 0.906966
vt 0.406250 1.000000
vt 0.437500 0.906966
vt 0.437500 1.000000
vt 0.468750 0.906966
vt 0.468750 1.000000
vt 0.437500 0.906966
vt 0.500000 0.906966
vt 0.500000 1.000000
vt 0.468750 0.906966
vt 0.531250 0.906966
vt 0.531250 1.000000
vt 0.500000 0.906966
vt 0.562500 0.906966
vt 0.562500 1.000000
vt 0.531250 0.906966
vt 0.593750 0.906966
vt 0.593750 1.000000
vt 0.625000 0.906966
vt 0.625000 1.000000
vt 0.656250 0.906966
vt 0.656250 1.000000
vt 0.687500 0.906966
vt 0.687500 1.000000
vt 0.718750 0.906966
vt 0.718750 1.000000
vt 0.687500 0.906966
vt 0.750000 0.906966
vt 0.750000 1.000000
vt 0.718750 0.906966
vt 0.781250 0.906966
vt 0.781250 1.000000
vt 0.750000 0.906966
vt 0.812500 0.906966
vt 0.812500 1.000000
vt 0.781250 0.906966
vt 0.843750 0.906966
vt 0.843750 1.000000
vt 0.875000 0.906966
vt 0.875000 1.000000
vt 0.906250 0.906966
vt 0.906250 1.000000
vt 0.937500 0.906966
vt 0.937500 1.000000
vt 0.968750 0.906966
vt 0.968750 1.000000
vt 0.937500 0.906966
vt 1.000000 0.906966
vt 1.000000 1.000000
vt 0.968750 0.906966
vt 0.031250 0.906966
vt 0.000000 0.906966
vt 0.000101 0.807519
vt 0.031250 0.807519
vt 0.000101 0.692481
vt 0.031250 0.692481
vt 0.062500 0.807519
vt 0.062500 0.692481
vt 0.093750 0.807519
vt 0.093750 0.692481
vt 0.125000 0.807519
vt 0.125000 0.692481
vt 0.156250 0.807519
vt 0.156250 0.692481
vt 0.187500 0.807519
vt 0.187500 0.692481
vt 0.218750 0.807519
vt 0.218750 0.692481
vt 0.250000 0.807519
vt 0.250000 0.692481
vt 0.281250 0.807519
vt 0.281250 0.692481
vt 0.312500 0.807519
vt 0.312500 0.692481
vt 0.343750 0.807519
vt 0.343750 0.692481
vt 0.375000 0.807519
vt 0.375000 0.692481
vt 0.406250 0.807519
vt 0.406250 0.692481
vt 0.437500 0.807519
vt 0.437500 0.692481
vt 0.468750 0.807519
vt 0.468750 0.692481
vt 0.500000 0.807519
vt 0.500000 0.692481
vt 0.531250 0.807519
vt 0.531250 0.692481
vt 0.562500 0.807519
vt 0.562500 0.692481
vt 0.593750 0.807519
vt 0.593750 0.692481
vt 0.625000 0.807519
vt 0.625000 0.692481
vt 0.656250 0.807519
vt 0.656250 0.692481
vt 0.687500 0.807519
vt 0.687500 0.692481
vt 0.718750 0.807519
vt 0.718750 0.692481
vt 0.750000 0.807519
vt 0.750000 0.692481
vt 0.781250 0.807519
vt 0.781250 0.692481
vt 0.812500 0.807519
vt 0.812500 0.692481
vt 0.843750 0.807519
vt 0.843750 0.692481
vt 0.875000 0.807519
vt 0.875000 0.692481
vt 0.906250 0.807519
vt 0.906250 0.692481
vt 0.937500 0.807519
vt 0.937500 0.692481
vt 0.968750 0.807519
vt 0.968750 0.692481
vt 0.999899 0.807519
vt 0.999899 0.692481
vt 0.000000 1.000000
vt 0.906250 1.000000
vt 0.781250 1.000000
vt 0.296822 0.485388
vt 0.250000 0.490000
vt 0.203178 0.485388
vt 0.158156 0.471731
vt 0.116663 0.449553
vt 0.080294 0.419706
vt 0.050447 0.383337
vt 0.028269 0.341844
vt 0.014612 0.296822
vt 0.010000 0.250000
vt 0.014612 0.203178
vt 0.028269 0.158156
vt 0.050447 0.116663
vt 0.080294 0.080294
vt 0.116663 0.050447
vt 0.158156 0.028269
vt 0.203178 0.014612
vt 0.250000 0.010000
vt 0.296822 0.014612
vt 0.341844 0.028269
vt 0.383337 0.050447
vt 0.419706 0.080294
vt 0.449553 0.116663
vt 0.471731 0.158156
vt 0.485388 0.203178
vt 0.490000 0.250000
vt 0.485388 0.296822
vt 0.471731 0.341844
vt 0.449553 0.383337
vt 0.419706 0.419706
vt 0.383337 0.449553
vt 0.341844 0.471731
vt 1.000145 1.000000
vt 1.000037 1.000000
vt 0.906250 1.000000
vt 0.875000 1.000000
vt 0.687500 1.000000
vt 0.593750 1.000000
vt 0.437500 1.000000
vt 0.406250 1.000000
vt 0.312500 1.000000
vt 0.312500 1.000000
vt 0.187500 1.000000
vt 0.125000 1.000000
vt 0.031250 1.000000
vt -0.000145 1.000000
vt -0.000037 1.000000
s 0
usemtl Massa_de_pizza
f 63/1/1 189/2/1 66/3/1 1/4/1
f 5/5/2 73/6/2 77/7/2 7/8/2
f 7/8/3 77/7/3 81/9/3 9/10/3
f 9/10/4 81/9/4 85/11/4 11/12/4
f 11/12/5 85/11/5 89/13/5 13/14/5
f 13/14/6 89/15/6 93/16/6 15/17/6
f 15/17/7 93/16/7 97/18/7 17/19/7
f 17/19/8 97/18/8 101/20/8 19/21/8
f 19/21/9 101/20/9 105/22/9 21/23/9
f 21/23/10 105/22/10 109/24/10 23/25/10
f 23/25/11 109/24/11 113/26/11 25/27/11
f 25/27/12 113/26/12 117/28/12 27/29/12
f 27/29/13 117/28/13 121/30/13 29/31/13
f 29/31/14 121/30/14 125/32/14 31/33/14
f 31/33/15 125/32/15 129/34/15 33/35/15
f 33/35/16 129/34/16 133/36/16 35/37/16
f 35/37/17 133/36/17 137/38/17 37/39/17
f 37/39/18 137/38/18 141/40/18 39/41/18
f 39/41/19 141/40/19 145/42/19 41/43/19
f 41/43/20 145/42/20 149/44/20 43/45/20
f 43/45/21 149/44/21 153/46/21 45/47/21
f 45/47/22 153/46/22 157/48/22 47/49/22
f 47/49/23 157/48/23 161/50/23 49/51/23
f 49/51/24 161/50/24 165/52/24 51/53/24
f 51/53/25 165/52/25 169/54/25 53/55/25
f 53/55/26 169/54/26 173/56/26 55/57/26
f 55/57/27 173/56/27 177/58/27 57/59/27
f 57/59/28 177/58/28 181/60/28 59/61/28
f 59/61/29 181/60/29 185/62/29 61/63/29
f 61/63/30 185/62/30 189/2/30 63/1/30
f 400/64/31 393/65/31 217/65/31 218/64/31
f 1/66/32 66/67/32 69/68/32 3/69/32
f 1/70/33 3/71/33 5/72/33 7/73/33 9/74/33 11/75/33 13/76/33 15/77/33 17/78/33 19/79/33 21/80/33 23/81/33 25/82/33 27/83/33 29/84/33 31/85/33 33/86/33 35/87/33 37/88/33 39/89/33 41/90/33 43/91/33 45/92/33 47/93/33 49/94/33 51/95/33 53/96/33 55/97/33 57/98/33 59/99/33 61/100/33 63/101/33
f 3/69/34 69/68/34 73/6/34 5/5/34
f 186/102/35 62/103/35 64/104/35 190/105/35
f 182/106/36 60/107/36 62/103/36 186/102/36
f 178/108/37 58/109/37 60/107/37 182/106/37
f 174/110/38 56/111/38 58/109/38 178/108/38
f 170/112/39 54/113/39 56/111/39 174/110/39
f 166/114/40 52/64/40 54/113/40 170/115/40
f 162/116/41 50/65/41 52/64/41 166/117/41
f 158/118/42 48/119/42 50/65/42 162/120/42
f 154/121/43 46/122/43 48/119/43 158/123/43
f 150/124/44 44/125/44 46/122/44 154/121/44
f 146/126/45 42/127/45 44/125/45 150/124/45
f 142/128/46 40/129/46 42/127/46 146/126/46
f 138/130/47 38/131/47 40/129/47 142/128/47
f 134/132/48 36/133/48 38/131/48 138/134/48
f 130/135/49 34/136/49 36/133/49 134/137/49
f 126/138/50 32/139/50 34/136/50 130/140/50
f 122/141/51 30/142/51 32/139/51 126/143/51
f 118/144/52 28/145/52 30/142/52 122/141/52
f 114/146/53 26/147/53 28/145/53 118/144/53
f 110/148/54 24/149/54 26/147/54 114/146/54
f 106/150/55 22/151/55 24/149/55 110/148/55
f 102/152/56 20/153/56 22/151/56 106/154/56
f 98/155/57 18/156/57 20/153/57 102/157/57
f 94/158/58 16/159/58 18/156/58 98/160/58
f 90/161/59 14/162/59 16/159/59 94/163/59
f 86/164/60 12/165/60 14/162/60 90/161/60
f 82/166/61 10/167/61 12/165/61 86/164/61
f 78/168/62 8/169/62 10/167/62 82/166/62
f 74/170/63 6/171/63 8/169/63 78/168/63
f 70/172/64 4/173/64 6/171/64 74/174/64
f 65/175/65 2/176/65 4/173/65 70/177/65
f 190/178/66 65/179/66 67/180/66 192/181/66
f 192/181/67 67/180/67 68/182/67 191/183/67
f 191/183/68 68/182/68 66/3/68 189/2/68
f 186/102/69 190/105/69 192/181/69 188/184/69
f 188/184/70 192/181/70 191/183/70 187/185/70
f 187/185/71 191/183/71 189/2/71 185/62/71
f 182/106/72 186/102/72 188/184/72 184/186/72
f 184/186/73 188/184/73 187/185/73 183/187/73
f 183/187/74 187/185/74 185/62/74 181/60/74
f 178/108/75 182/106/75 184/186/75 180/188/75
f 180/188/76 184/186/76 183/187/76 179/189/76
f 179/189/77 183/187/77 181/60/77 177/58/77
f 174/110/78 178/108/78 180/188/78 176/190/78
f 176/190/79 180/188/79 179/189/79 175/191/79
f 175/191/80 179/189/80 177/58/80 173/56/80
f 170/112/81 174/110/81 176/190/81 172/192/81
f 172/192/82 176/190/82 175/191/82 171/193/82
f 171/193/83 175/191/83 173/56/83 169/54/83
f 166/114/84 170/115/84 172/192/84 168/194/84
f 168/194/85 172/192/85 171/193/85 167/195/85
f 167/195/86 171/193/86 169/54/86 165/52/86
f 162/116/87 166/117/87 168/194/87 164/196/87
f 164/196/88 168/194/88 167/195/88 163/197/88
f 163/197/89 167/195/89 165/52/89 161/50/89
f 158/118/90 162/120/90 164/196/90 160/198/90
f 160/198/91 164/196/91 163/197/91 159/199/91
f 159/199/92 163/197/92 161/50/92 157/48/92
f 154/121/93 158/123/93 160/198/93 156/200/93
f 156/200/94 160/198/94 159/199/94 155/201/94
f 155/201/95 159/199/95 157/48/95 153/46/95
f 150/124/96 154/121/96 156/200/96 152/202/96
f 152/202/97 156/200/97 155/201/97 151/203/97
f 151/203/98 155/201/98 153/46/98 149/44/98
f 146/126/99 150/124/99 152/202/99 148/204/99
f 148/204/100 152/202/100 151/203/100 147/205/100
f 147/205/101 151/203/101 149/44/101 145/42/101
f 142/128/102 146/126/102 148/204/102 144/206/102
f 144/206/103 148/204/103 147/205/103 143/207/103
f 143/207/104 147/205/104 145/42/104 141/40/104
f 138/130/105 142/128/105 144/206/105 140/208/105
f 140/208/106 144/206/106 143/207/106 139/209/106
f 139/209/107 143/207/107 141/40/107 137/38/107
f 134/132/108 138/134/108 140/208/108 136/210/108
f 136/210/109 140/208/109 139/209/109 135/211/109
f 135/211/110 139/209/110 137/38/110 133/36/110
f 130/135/111 134/137/111 136/210/111 132/212/111
f 132/212/112 136/210/112 135/211/112 131/213/112
f 131/213/113 135/211/113 133/36/113 129/34/113
f 126/138/114 130/140/114 132/212/114 128/214/114
f 128/214/115 132/212/115 131/213/115 127/215/115
f 127/215/116 131/213/116 129/34/116 125/32/116
f 122/141/117 126/143/117 128/214/117 124/216/117
f 124/216/118 128/214/118 127/215/118 123/217/118
f 123/217/119 127/215/119 125/32/119 121/30/119
f 118/144/120 122/141/120 124/216/120 120/218/120
f 120/218/121 124/216/121 123/217/121 119/219/121
f 119/219/122 123/217/122 121/30/122 117/28/122
f 114/146/123 118/144/123 120/218/123 116/220/123
f 116/220/124 120/218/124 119/219/124 115/221/124
f 115/221/125 119/219/125 117/28/125 113/26/125
f 110/148/126 114/146/126 116/220/126 112/222/126
f 112/222/127 116/220/127 115/221/127 111/223/127
f 111/223/128 115/221/128 113/26/128 109/24/128
f 106/150/129 110/148/129 112/222/129 108/224/129
f 108/224/130 112/222/130 111/223/130 107/225/130
f 107/225/131 111/223/131 109/24/131 105/22/131
f 102/152/132 106/154/132 108/224/132 104/226/132
f 104/226/133 108/224/133 107/225/133 103/227/133
f 103/227/134 107/225/134 105/22/134 101/20/134
f 98/155/135 102/157/135 104/226/135 100/228/135
f 100/228/31 104/226/31 103/227/31 99/229/31
f 99/229/136 103/227/136 101/20/136 97/18/136
f 94/158/137 98/160/137 100/228/137 96/230/137
f 96/230/138 100/228/138 99/229/138 95/231/138
f 95/231/139 99/229/139 97/18/139 93/16/139
f 90/161/140 94/163/140 96/230/140 92/232/140
f 92/232/141 96/230/141 95/231/141 91/233/141
f 91/233/142 95/231/142 93/16/142 89/15/142
f 86/164/143 90/161/143 92/232/143 88/234/143
f 88/234/144 92/232/144 91/233/144 87/235/144
f 87/235/145 91/233/145 89/13/145 85/11/145
f 82/166/146 86/164/146 88/234/146 84/236/146
f 84/236/147 88/234/147 87/235/147 83/237/147
f 83/237/148 87/235/148 85/11/148 81/9/148
f 78/168/149 82/166/149 84/236/149 80/238/149
f 80/238/150 84/236/150 83/237/150 79/239/150
f 79/239/151 83/237/151 81/9/151 77/7/151
f 74/170/152 78/168/152 80/238/152 76/240/152
f 76/240/153 80/238/153 79/239/153 75/241/153
f 75/241/154 79/239/154 77/7/154 73/6/154
f 70/172/155 74/174/155 76/240/155 72/242/155
f 72/242/156 76/240/156 75/241/156 71/243/156
f 71/243/157 75/241/157 73/6/157 69/68/157
f 65/175/158 70/177/158 72/242/158 67/244/158
f 67/244/159 72/242/159 71/243/159 68/245/159
f 68/245/160 71/243/160 69/68/160 66/67/160
f 190/178/161 64/104/161 2/246/161 65/179/161
f 260/165/100 253/167/100 197/167/100 198/165/100
f 253/167/103 246/247/103 196/169/103 197/167/103
f 309/147/79 302/149/79 204/149/79 205/147/79
f 358/129/153 351/131/153 211/131/153 212/129/153
f 407/113/133 400/64/133 218/64/133 219/113/133
f 267/162/97 260/165/97 198/165/97 199/162/97
f 246/169/106 239/171/106 195/171/106 196/169/106
f 316/145/76 309/147/76 205/147/76 206/145/76
f 365/127/150 358/129/150 212/129/150 213/127/150
f 414/111/130 407/113/130 219/113/130 220/111/130
f 274/159/94 267/162/94 199/162/94 200/159/94
f 323/142/73 316/145/73 206/145/73 207/142/73
f 372/125/147 365/127/147 213/127/147 214/125/147
f 421/109/127 414/111/127 220/111/127 221/109/127
f 281/156/91 274/248/91 200/159/91 201/156/91
f 330/139/70 323/142/70 207/142/70 208/139/70
f 379/122/144 372/125/144 214/125/144 215/122/144
f 239/171/109 225/173/109 193/173/109 195/171/109
f 428/107/124 421/109/124 221/109/124 222/107/124
f 288/153/88 281/156/88 201/156/88 202/153/88
f 337/136/67 330/139/67 208/139/67 209/136/67
f 386/119/141 379/122/141 215/122/141 216/119/141
f 4/173/162 2/176/162 232/176/162 226/173/162
f 435/103/121 428/107/121 222/107/121 223/103/121
f 295/151/85 288/153/85 202/153/85 203/151/85
f 344/133/159 337/136/159 209/136/159 210/133/159
f 393/65/138 386/119/138 216/119/138 217/65/138
f 10/167/162 8/169/162 247/169/162 254/167/162
f 442/104/118 435/103/118 223/103/118 224/104/118
f 302/149/82 295/151/82 203/151/82 204/149/82
f 351/131/156 344/133/156 210/133/156 211/131/156
f 193/249/162 194/250/162 224/251/162 223/252/162 222/253/162 221/254/162 220/255/162 219/256/162 218/257/162 217/258/162 216/259/162 215/260/162 214/261/162 213/262/162 212/263/162 211/264/162 210/265/162 209/266/162 208/267/162 207/268/162 206/269/162 205/270/162 204/271/162 203/272/162 202/273/162 201/274/162 200/275/162 199/276/162 198/277/162 197/278/162 196/279/162 195/280/162
f 64/104/162 62/103/162 436/103/162 443/104/162
f 38/131/162 36/133/162 345/133/162 352/131/162
f 12/165/162 10/167/162 254/167/162 261/165/162
f 2/246/162 64/104/162 443/104/162 232/246/162
f 40/129/162 38/131/162 352/131/162 359/129/162
f 14/162/162 12/165/162 261/165/162 268/162/162
f 42/127/162 40/129/162 359/129/162 366/127/162
f 16/159/162 14/162/162 268/162/162 275/159/162
f 44/125/162 42/127/162 366/127/162 373/125/162
f 18/156/162 16/159/162 275/159/162 282/156/162
f 46/122/162 44/125/162 373/125/162 380/122/162
f 20/153/162 18/156/162 282/156/162 289/153/162
f 48/119/162 46/122/162 380/122/162 387/119/162
f 22/151/162 20/153/162 289/153/162 296/151/162
f 50/65/162 48/119/162 387/119/162 394/65/162
f 24/149/162 22/151/162 296/151/162 303/149/162
f 52/64/162 50/65/162 394/65/162 401/64/162
f 26/147/162 24/149/162 303/149/162 310/147/162
f 54/113/162 52/64/162 401/64/162 408/113/162
f 28/145/162 26/147/162 310/147/162 317/145/162
f 56/111/162 54/113/162 408/113/162 415/111/162
f 30/142/162 28/145/162 317/145/162 324/142/162
f 6/171/162 4/173/162 226/173/162 240/171/162
f 58/109/162 56/111/162 415/111/162 422/109/162
f 32/139/162 30/142/162 324/142/162 331/139/162
f 233/246/115 442/104/115 224/104/115 194/246/115
f 60/107/162 58/109/162 422/109/162 429/107/162
f 34/136/162 32/139/162 331/139/162 338/136/162
f 8/169/162 6/171/162 240/171/162 247/169/162
f 62/103/162 60/107/162 429/107/162 436/103/162
f 36/133/162 34/136/162 338/136/162 345/133/162
f 226/173/163 232/176/163 234/176/163 231/173/163
f 231/173/164 234/176/164 235/176/164 230/173/164
f 230/173/165 235/176/165 236/176/165 229/173/165
f 229/173/166 236/176/166 237/281/166 228/173/166
f 228/173/167 237/281/167 238/282/167 227/173/167
f 227/173/168 238/282/168 233/176/168 225/173/168
f 240/171/169 226/173/169 231/173/169 245/171/169
f 245/171/170 231/173/170 230/173/170 244/171/170
f 244/171/171 230/173/171 229/173/171 243/171/171
f 243/171/172 229/173/172 228/173/172 242/171/172
f 242/171/173 228/173/173 227/173/173 241/171/173
f 241/171/174 227/173/174 225/173/174 239/171/174
f 247/169/175 240/171/175 245/171/175 252/169/175
f 252/169/176 245/171/176 244/171/176 251/169/176
f 251/169/177 244/171/177 243/171/177 250/169/177
f 250/169/178 243/171/178 242/171/178 249/283/178
f 249/283/179 242/171/179 241/171/179 248/169/179
f 248/169/180 241/171/180 239/171/180 246/169/180
f 254/167/181 247/169/181 252/169/181 259/167/181
f 259/167/182 252/169/182 251/169/182 258/167/182
f 258/167/183 251/169/183 250/169/183 257/167/183
f 257/167/184 250/169/184 249/283/184 256/284/184
f 256/284/185 249/283/185 248/169/185 255/167/185
f 255/167/186 248/169/186 246/247/186 253/167/186
f 261/165/187 254/167/187 259/167/187 266/165/187
f 266/165/188 259/167/188 258/167/188 265/165/188
f 265/165/189 258/167/189 257/167/189 264/165/189
f 264/165/190 257/167/190 256/284/190 263/165/190
f 263/165/191 256/284/191 255/167/191 262/165/191
f 262/165/192 255/167/192 253/167/192 260/165/192
f 268/162/193 261/165/193 266/165/193 273/162/193
f 273/162/194 266/165/194 265/165/194 272/162/194
f 272/162/195 265/165/195 264/165/195 271/162/195
f 271/162/196 264/165/196 263/165/196 270/162/196
f 270/162/197 263/165/197 262/165/197 269/162/197
f 269/162/198 262/165/198 260/165/198 267/162/198
f 275/159/199 268/162/199 273/162/199 280/159/199
f 280/159/200 273/162/200 272/162/200 279/159/200
f 279/159/201 272/162/201 271/162/201 278/159/201
f 278/159/202 271/162/202 270/162/202 277/159/202
f 277/159/203 270/162/203 269/162/203 276/159/203
f 276/159/204 269/162/204 267/162/204 274/159/204
f 282/156/205 275/159/205 280/159/205 287/156/205
f 287/156/206 280/159/206 279/159/206 286/156/206
f 286/156/207 279/159/207 278/159/207 285/156/207
f 285/156/208 278/159/208 277/159/208 284/156/208
f 284/156/209 277/159/209 276/159/209 283/156/209
f 283/156/210 276/159/210 274/248/210 281/156/210
f 289/153/211 282/156/211 287/156/211 294/153/211
f 294/153/212 287/156/212 286/156/212 293/153/212
f 293/153/213 286/156/213 285/156/213 292/153/213
f 292/153/214 285/156/214 284/156/214 291/153/214
f 291/153/215 284/156/215 283/156/215 290/153/215
f 290/153/216 283/156/216 281/156/216 288/153/216
f 296/151/217 289/153/217 294/153/217 301/151/217
f 301/151/218 294/153/218 293/153/218 300/151/218
f 300/151/219 293/153/219 292/153/219 299/151/219
f 299/151/220 292/153/220 291/153/220 298/285/220
f 298/285/221 291/153/221 290/153/221 297/151/221
f 297/151/222 290/153/222 288/153/222 295/151/222
f 303/149/223 296/151/223 301/151/223 308/149/223
f 308/149/224 301/151/224 300/151/224 307/149/224
f 307/149/225 300/151/225 299/151/225 306/149/225
f 306/149/226 299/151/226 298/285/226 305/149/226
f 305/149/227 298/285/227 297/151/227 304/149/227
f 304/149/228 297/151/228 295/151/228 302/149/228
f 310/147/229 303/149/229 308/149/229 315/147/229
f 315/147/230 308/149/230 307/149/230 314/147/230
f 314/147/231 307/149/231 306/149/231 313/147/231
f 313/147/232 306/149/232 305/149/232 312/147/232
f 312/147/233 305/149/233 304/149/233 311/147/233
f 311/147/234 304/149/234 302/149/234 309/147/234
f 317/145/235 310/147/235 315/147/235 322/145/235
f 322/145/236 315/147/236 314/147/236 321/145/236
f 321/145/237 314/147/237 313/147/237 320/145/237
f 320/145/238 313/147/238 312/147/238 319/286/238
f 319/286/239 312/147/239 311/147/239 318/145/239
f 318/145/240 311/147/240 309/147/240 316/145/240
f 324/142/241 317/145/241 322/145/241 329/142/241
f 329/142/242 322/145/242 321/145/242 328/142/242
f 328/142/243 321/145/243 320/145/243 327/142/243
f 327/142/244 320/145/244 319/286/244 326/142/244
f 326/142/245 319/286/245 318/145/245 325/142/245
f 325/142/246 318/145/246 316/145/246 323/142/246
f 331/139/247 324/142/247 329/142/247 336/139/247
f 336/139/248 329/142/248 328/142/248 335/139/248
f 335/139/249 328/142/249 327/142/249 334/139/249
f 334/139/250 327/142/250 326/142/250 333/139/250
f 333/139/251 326/142/251 325/142/251 332/139/251
f 332/139/252 325/142/252 323/142/252 330/139/252
f 338/136/253 331/139/253 336/139/253 343/136/253
f 343/136/254 336/139/254 335/139/254 342/136/254
f 342/136/255 335/139/255 334/139/255 341/136/255
f 341/136/256 334/139/256 333/139/256 340/136/256
f 340/136/257 333/139/257 332/139/257 339/136/257
f 339/136/258 332/139/258 330/139/258 337/136/258
f 345/133/259 338/136/259 343/136/259 350/133/259
f 350/133/260 343/136/260 342/136/260 349/133/260
f 349/133/261 342/136/261 341/136/261 348/133/261
f 348/133/262 341/136/262 340/136/262 347/133/262
f 347/133/263 340/136/263 339/136/263 346/133/263
f 346/133/264 339/136/264 337/136/264 344/133/264
f 352/131/265 345/133/265 350/133/265 357/131/265
f 357/131/266 350/133/266 349/133/266 356/131/266
f 356/131/267 349/133/267 348/133/267 355/131/267
f 355/131/268 348/133/268 347/133/268 354/287/268
f 354/287/269 347/133/269 346/133/269 353/131/269
f 353/131/270 346/133/270 344/133/270 351/131/270
f 359/129/271 352/131/271 357/131/271 364/129/271
f 364/129/272 357/131/272 356/131/272 363/129/272
f 363/129/273 356/131/273 355/131/273 362/129/273
f 362/129/274 355/131/274 354/287/274 361/288/274
f 361/288/275 354/287/275 353/131/275 360/129/275
f 360/129/276 353/131/276 351/131/276 358/129/276
f 366/127/277 359/129/277 364/129/277 371/127/277
f 371/127/278 364/129/278 363/129/278 370/127/278
f 370/127/279 363/129/279 362/129/279 369/127/279
f 369/127/280 362/129/280 361/288/280 368/127/280
f 368/127/281 361/288/281 360/129/281 367/127/281
f 367/127/282 360/129/282 358/129/282 365/127/282
f 373/125/283 366/127/283 371/127/283 378/125/283
f 378/125/284 371/127/284 370/127/284 377/125/284
f 377/125/285 370/127/285 369/127/285 376/125/285
f 376/125/286 369/127/286 368/127/286 375/125/286
f 375/125/287 368/127/287 367/127/287 374/125/287
f 374/125/288 367/127/288 365/127/288 372/125/288
f 380/122/289 373/125/289 378/125/289 385/122/289
f 385/122/290 378/125/290 377/125/290 384/122/290
f 384/122/291 377/125/291 376/125/291 383/122/291
f 383/122/292 376/125/292 375/125/292 382/289/292
f 382/289/293 375/125/293 374/125/293 381/290/293
f 381/290/294 374/125/294 372/125/294 379/122/294
f 387/119/295 380/122/295 385/122/295 392/119/295
f 392/119/296 385/122/296 384/122/296 391/119/296
f 391/119/297 384/122/297 383/122/297 390/119/297
f 390/119/298 383/122/298 382/289/298 389/119/298
f 389/119/299 382/289/299 381/290/299 388/119/299
f 388/119/300 381/290/300 379/122/300 386/119/300
f 394/65/301 387/119/301 392/119/301 399/65/301
f 399/65/302 392/119/302 391/119/302 398/65/302
f 398/65/303 391/119/303 390/119/303 397/65/303
f 397/65/304 390/119/304 389/119/304 396/65/304
f 396/65/305 389/119/305 388/119/305 395/65/305
f 395/65/306 388/119/306 386/119/306 393/65/306
f 401/64/307 394/65/307 399/65/307 406/64/307
f 406/64/308 399/65/308 398/65/308 405/64/308
f 405/64/309 398/65/309 397/65/309 404/64/309
f 404/64/310 397/65/310 396/65/310 403/64/310
f 403/64/311 396/65/311 395/65/311 402/64/311
f 402/64/312 395/65/312 393/65/312 400/64/312
f 408/113/313 401/64/313 406/64/313 413/113/313
f 413/113/314 406/64/314 405/64/314 412/113/314
f 412/113/315 405/64/315 404/64/315 411/113/315
f 411/113/316 404/64/316 403/64/316 410/291/316
f 410/291/317 403/64/317 402/64/317 409/113/317
f 409/113/318 402/64/318 400/64/318 407/113/318
f 415/111/319 408/113/319 413/113/319 420/111/319
f 420/111/320 413/113/320 412/113/320 419/111/320
f 419/111/321 412/113/321 411/113/321 418/111/321
f 418/111/322 411/113/322 410/291/322 417/111/322
f 417/111/323 410/291/323 409/113/323 416/111/323
f 416/111/324 409/113/324 407/113/324 414/111/324
f 422/109/325 415/111/325 420/111/325 427/109/325
f 427/109/326 420/111/326 419/111/326 426/109/326
f 426/109/327 419/111/327 418/111/327 425/109/327
f 425/109/328 418/111/328 417/111/328 424/109/328
f 424/109/329 417/111/329 416/111/329 423/292/329
f 423/292/330 416/111/330 414/111/330 421/109/330
f 429/107/331 422/109/331 427/109/331 434/107/331
f 434/107/332 427/109/332 426/109/332 433/107/332
f 433/107/333 426/109/333 425/109/333 432/107/333
f 432/107/334 425/109/334 424/109/334 431/107/334
f 431/107/335 424/109/335 423/292/335 430/107/335
f 430/107/336 423/292/336 421/109/336 428/107/336
f 436/103/337 429/107/337 434/107/337 441/103/337
f 441/103/338 434/107/338 433/107/338 440/103/338
f 440/103/339 433/107/339 432/107/339 439/103/339
f 439/103/340 432/107/340 431/107/340 438/103/340
f 438/103/341 431/107/341 430/107/341 437/103/341
f 437/103/342 430/107/342 428/107/342 435/103/342
f 443/104/343 436/103/343 441/103/343 448/104/343
f 448/104/344 441/103/344 440/103/344 447/104/344
f 447/104/345 440/103/345 439/103/345 446/104/345
f 446/104/346 439/103/346 438/103/346 445/293/346
f 445/293/347 438/103/347 437/103/347 444/104/347
f 444/104/348 437/103/348 435/103/348 442/104/348
f 232/246/349 443/104/349 448/104/349 234/246/349
f 234/246/350 448/104/350 447/104/350 235/246/350
f 235/246/351 447/104/351 446/104/351 236/246/351
f 236/246/352 446/104/352 445/293/352 237/294/352
f 237/294/353 445/293/353 444/104/353 238/295/353
f 238/295/354 444/104/354 442/104/354 233/246/354
f 225/173/112 233/176/112 194/176/112 193/173/112
